# xmcd CD database file
#
# Track frame offsets:
#	182
#	18707
#	30777
#	47020
#	66222
#	77722
#	98550
#	107982
#	132222
#	148370
#	165675
#	174420
#	189565
#	207967
#
# Disc length: 2972 seconds
#
# Revision: 0
# Processed by: cddbd v1.5.1PL0 Copyright (c) Steve Scherf et al.
# Submitted via: CDex 1.51
#
DISCID=be0b9a0e
DTITLE=Spooner and Wilmking - Tooze Blooze
DYEAR=1995
DGENRE=Blues
TTITLE0=Memphis Town
TTITLE1=Do Your Duty
TTITLE2=Baby, Don´t You Love Me No More
TTITLE3=Can´t Hold On Much Longer
TTITLE4=You Call It Jogging
TTITLE5=If You Gotta Make A Fool Of Somebody
TTITLE6=You´re Never TO Old To Boogie
TTITLE7=Iodine In My Coffee
TTITLE8=Ever Since The World Ended
TTITLE9=Out Of Tune And Out Of Time
TTITLE10=It´ll Be Me
TTITLE11=Get Your Ashes Hauled Away
TTITLE12=Everybody Cryin´ Mercy
TTITLE13=Sure Had A Wonderful Time Last Night
EXTD=YEAR: 1995
EXTT0=
EXTT1=
EXTT2=
EXTT3=
EXTT4=
EXTT5=
EXTT6=
EXTT7=
EXTT8=
EXTT9=
EXTT10=
EXTT11=
EXTT12=
EXTT13=
PLAYORDER=
